<?xml version="1.0"?><svg xmlns="http://www.w3.org/2000/svg" viewBox="0 0 100 100"><path fill="none" stroke="#333" stroke-width="3.5" stroke-linecap="round" stroke-linejoin="round" stroke-miterlimit="10" d="M13.5 85h73"/><path d="M86.7 37.2c-10 7-10.9 20.6-18.2 30 3-10.5 3.3-21.7.9-32.4-1.4 12-4.6 23.7-7.8 35.3-1.8-13.3-3.6-27.3 1.9-39.7-7.7 9.2-12.5 20.4-13.6 32-.8-7.9-1.1-15.9-.8-23.8.2-5.4.8-11 3.4-15.8C41.6 33.3 37.1 49 40.6 63.2c.3 1.1.7 2.2 1 3.4-.4-1.1-.7-2.2-1-3.4-1.4-4.9-3-9.8-5.3-14.4-2.8-5.7-6.7-11-12.1-14.7 6.8 15.3 8.2 27 10 43.4-.9-6.3-1.8-7.7-5.4-13.2-3.6-5.4-9.6-9.8-16.5-10.3 4.3 3.1 6.3 8 7.7 12.8 1.6 5.6 2.4 11.3 2.7 17.1 0 .4 0 .7.1 1h58.1c-1-16.2-.2-32.8 6.8-47.7z" fill="#abbd81" stroke="#333" stroke-width="3.5" stroke-linecap="round" stroke-linejoin="round" stroke-miterlimit="10"/><metadata xmlns:d="https://loading.io/stock/">
<d:name>grass</d:name>
<d:tags>grass,weeds,silvergrass,miscanthus,green,park,land</d:tags>
<d:license>by</d:license>
<d:slug>wcz842</d:slug>
</metadata></svg>